<svg width="775" height="122" viewBox="0 0 775 122" fill="none" xmlns="http://www.w3.org/2000/svg">
<path d="M69.8117 0.681396C102.883 8.15858 120.672 30.7569 120.545 64.4162C120.476 82.8843 120.533 101.353 120.533 120.144C112.591 120.144 105.099 120.144 96.8164 120.144C96.8164 115.632 96.8167 111.156 96.8164 106.679C96.8152 90.9563 96.977 75.2312 96.7696 59.5109C96.5337 41.6289 82.7872 26.1968 65.6766 24.1835C46.5666 21.935 29.864 32.8737 25.1354 50.7344C20.4001 68.6208 29.2119 86.6315 46.2512 93.8029C48.0139 94.5448 49.8862 95.0262 52.336 95.8364C52.336 83.7602 52.336 72.3324 52.336 60.5596C59.4734 60.5596 66.128 60.5596 73.0828 60.5596C73.0828 80.2912 73.0828 99.9412 73.0824 119.592C37.2144 125.473 8.87532 104.06 1.64667 73.494C-5.89924 41.5861 14.6776 8.61348 46.7754 1.7613C54.0309 0.212379 61.7698 0.927225 69.8117 0.681396Z" fill="#3063E6"/>
<path d="M180.74 110.179C180.74 113.709 180.74 116.669 180.74 120.061C172.864 120.061 165.246 120.061 156.962 120.061C156.962 116 156.952 112.082 156.963 108.165C157.009 91.8499 157.086 75.535 157.104 59.2201C157.133 34.1035 140.207 11.1057 115.745 2.96113C114.285 2.47485 112.822 1.99465 110.924 1.36718C140.069 -5.73716 172.28 15.6695 179.225 46.4753C180.264 51.0867 180.669 55.9227 180.716 60.6613C180.88 76.9752 180.755 93.292 180.74 110.179Z" fill="#3063E6"/>
<path d="M338.128 56.6485V65.5669C338.128 82.0825 332.843 95.4601 322.273 105.7C311.703 115.939 298.05 121.059 281.314 121.059C263.477 121.059 248.668 115.279 236.887 103.718C225.216 92.0469 219.381 77.8435 219.381 61.1077C219.381 44.2618 225.161 30.0033 236.722 18.3323C248.393 6.66129 262.817 0.825778 279.993 0.825778C290.783 0.825778 300.638 3.30312 309.556 8.25779C318.474 13.1024 325.411 19.5985 330.366 27.7462L310.877 38.9768C308.125 34.2423 303.941 30.3887 298.325 27.4159C292.82 24.4431 286.654 22.9567 279.828 22.9567C268.818 22.9567 259.734 26.5901 252.577 33.857C245.531 41.0137 242.007 50.0973 242.007 61.1077C242.007 72.008 245.586 81.0365 252.742 88.1932C260.009 95.2399 269.588 98.7632 281.479 98.7632C290.288 98.7632 297.555 96.8364 303.28 92.9827C309.116 89.019 313.079 83.6239 315.171 76.7975H280.158V56.6485H338.128Z" fill="#111111"/>
<path d="M363.918 26.2598C360.395 26.2598 357.312 24.9936 354.669 22.4612C352.137 19.8187 350.871 16.7358 350.871 13.2125C350.871 9.68915 352.137 6.60624 354.669 3.96374C357.312 1.32125 360.395 0 363.918 0C367.551 0 370.634 1.32125 373.167 3.96374C375.809 6.60624 377.131 9.68915 377.131 13.2125C377.131 16.7358 375.809 19.8187 373.167 22.4612C370.634 24.9936 367.551 26.2598 363.918 26.2598ZM353.348 118.747V36.1691H374.653V118.747H353.348Z" fill="#111111"/>
<path d="M415.458 50.3725C417.44 45.0876 420.688 41.1238 425.202 38.4813C429.827 35.8388 434.947 34.5176 440.562 34.5176V58.3C434.066 57.5293 428.23 58.8505 423.055 62.2638C417.991 65.677 415.458 71.3473 415.458 79.2748V118.747H394.153V36.1691H415.458V50.3725Z" fill="#111111"/>
<path d="M544.353 33.857C553.822 33.857 561.364 36.9399 566.98 43.1057C572.705 49.2715 575.568 57.5293 575.568 67.8791V118.747H554.263V69.3655C554.263 64.4108 553.052 60.5571 550.629 57.8046C548.207 55.052 544.794 53.6757 540.39 53.6757C535.545 53.6757 531.747 55.2722 528.994 58.4652C526.351 61.6582 525.03 66.2825 525.03 72.3383V118.747H503.725V69.3655C503.725 64.4108 502.514 60.5571 500.092 57.8046C497.669 55.052 494.256 53.6757 489.852 53.6757C485.118 53.6757 481.319 55.2722 478.456 58.4652C475.704 61.6582 474.327 66.2825 474.327 72.3383V118.747H453.022V36.1691H474.327V44.9224C479.282 37.5454 486.934 33.857 497.284 33.857C507.414 33.857 514.901 37.8207 519.745 45.7482C525.25 37.8207 533.453 33.857 544.353 33.857Z" fill="#111111"/>
<path d="M656.422 36.1691H677.727V118.747H656.422V109.003C650.036 117.04 641.062 121.059 629.502 121.059C618.491 121.059 609.022 116.875 601.095 108.507C593.277 100.029 589.369 89.6796 589.369 77.4581C589.369 65.2366 593.277 54.9418 601.095 46.574C609.022 38.096 618.491 33.857 629.502 33.857C641.062 33.857 650.036 37.8757 656.422 45.9133V36.1691ZM617.115 94.304C621.409 98.598 626.859 100.745 633.465 100.745C640.072 100.745 645.522 98.598 649.816 94.304C654.22 89.8998 656.422 84.2845 656.422 77.4581C656.422 70.6317 654.22 65.0714 649.816 60.7774C645.522 56.3732 640.072 54.1711 633.465 54.1711C626.859 54.1711 621.409 56.3732 617.115 60.7774C612.821 65.0714 610.674 70.6317 610.674 77.4581C610.674 84.2845 612.821 89.8998 617.115 94.304Z" fill="#111111"/>
<path d="M742.96 33.857C751.988 33.857 759.42 36.8848 765.256 42.9405C771.201 48.9962 774.174 57.3641 774.174 68.0442V118.747H752.869V70.6867C752.869 65.1815 751.383 60.9976 748.41 58.1349C745.437 55.1621 741.473 53.6757 736.519 53.6757C731.013 53.6757 726.609 55.3823 723.306 58.7955C720.003 62.2087 718.352 67.3285 718.352 74.155V118.747H697.046V36.1691H718.352V45.4179C723.526 37.7106 731.729 33.857 742.96 33.857Z" fill="#111111"/>
</svg>
