<svg width="64" height="63" viewBox="0 0 64 63" fill="none" xmlns="http://www.w3.org/2000/svg">
<rect x="0.895996" y="0.390015" width="62.2595" height="62.2595" rx="5.15394" fill="#4786FF"/>
<path d="M26.6781 16.4747C35.0904 18.3766 39.6154 24.1249 39.5831 32.6868C39.5654 37.3845 39.58 42.0824 39.58 46.8622C37.5597 46.8622 35.6541 46.8622 33.5473 46.8622C33.5473 45.7145 33.5473 44.5759 33.5472 43.4373C33.5469 39.4378 33.5881 35.4378 33.5353 31.4391C33.4753 26.8904 29.9787 22.965 25.6262 22.4529C20.7653 21.8809 16.5166 24.6634 15.3138 29.2066C14.1093 33.7563 16.3508 38.3377 20.685 40.1619C21.1334 40.3506 21.6096 40.4731 22.2328 40.6791C22.2328 37.6073 22.2328 34.7005 22.2328 31.7058C24.0483 31.7058 25.7411 31.7058 27.5102 31.7058C27.5102 36.7249 27.5102 41.7233 27.51 46.7218C18.3863 48.2178 11.1778 42.7711 9.33902 34.9959C7.41957 26.8796 12.6537 18.4923 20.8184 16.7494C22.664 16.3554 24.6325 16.5372 26.6781 16.4747Z" fill="white"/>
<path d="M54.8949 44.3271C54.8949 45.2253 54.8949 45.9781 54.8949 46.8409C52.8914 46.8409 50.9535 46.8409 48.8464 46.8409C48.8464 45.8079 48.844 44.8114 48.8468 43.8149C48.8584 39.6649 48.8779 35.5149 48.8826 31.3648C48.8898 24.976 44.5846 19.126 38.3622 17.0543C37.9907 16.9306 37.6187 16.8085 37.1357 16.6489C44.5493 14.8417 52.743 20.2869 54.5094 28.123C54.7738 29.2959 54.8767 30.5261 54.8888 31.7314C54.9304 35.8812 54.8987 40.0317 54.8949 44.3271Z" fill="white"/>
</svg>
